<?xml version="1.0" standalone="no"?>
<!DOCTYPE svg PUBLIC "-//W3C//DTD SVG 20010904//EN"
 "http://www.w3.org/TR/2001/REC-SVG-20010904/DTD/svg10.dtd">
<svg version="1.0" xmlns="http://www.w3.org/2000/svg"
 width="512.000000pt" height="512.000000pt" viewBox="0 0 512.000000 512.000000"
 preserveAspectRatio="xMidYMid meet">
<metadata>
Created by potrace 1.11, written by Peter Selinger 2001-2013
</metadata>
<g transform="translate(0.000000,512.000000) scale(0.100000,-0.100000)"
fill="#000000" stroke="none">
<path d="M1090 4242 c20 -64 200 -536 238 -622 11 -25 36 -80 56 -123 20 -43
36 -81 36 -83 0 -10 101 -208 152 -298 80 -142 162 -262 271 -399 47 -60 170
-189 329 -346 l125 -123 49 68 c26 38 75 104 107 147 l59 79 -33 41 c-18 23
-37 47 -41 52 -4 6 -20 26 -35 45 -291 361 -438 675 -629 1339 -35 124 -66
226 -67 228 -3 2 -87 6 -474 18 l-152 5 9 -28z"/>
<path d="M3787 4263 c-1 -1 -89 -4 -196 -7 -107 -3 -195 -7 -196 -8 -1 -2 -30
-102 -65 -223 -34 -121 -68 -236 -75 -255 -8 -19 -23 -66 -35 -105 -81 -261
-235 -590 -357 -760 -75 -105 -158 -217 -168 -229 -22 -23 -269 -350 -302
-399 -181 -268 -220 -447 -134 -617 30 -59 123 -200 132 -200 9 0 74 124 99
193 15 40 23 85 24 145 2 77 6 94 35 146 50 91 84 129 376 424 148 151 275
279 280 285 9 11 92 112 130 159 31 38 154 228 187 288 82 150 158 301 198
395 23 55 53 124 67 154 38 83 233 598 233 614 0 5 -228 5 -233 0z"/>
<path d="M2745 2097 c-52 -54 -128 -153 -147 -192 -8 -18 -12 -42 -8 -60 14
-73 -8 -155 -87 -315 -101 -208 -122 -272 -119 -357 1 -38 10 -90 19 -116 26
-75 68 -150 77 -141 16 17 50 134 50 172 0 21 9 67 21 102 21 65 33 84 181
300 113 165 151 251 151 345 0 38 -8 97 -18 130 -18 62 -66 174 -75 174 -3 1
-23 -18 -45 -42z"/>
<path d="M2648 1266 c-39 -55 -78 -157 -78 -203 0 -15 -23 -93 -51 -173 -43
-124 -51 -156 -51 -221 0 -78 9 -139 21 -139 3 0 8 12 9 27 7 82 80 267 161
410 22 38 50 124 57 172 6 49 -11 166 -25 175 -4 3 -23 -19 -43 -48z"/>
<path d="M2585 746 c-14 -36 -15 -51 -6 -79 7 -19 14 -55 17 -78 8 -64 21 -69
30 -13 13 83 3 214 -16 214 -4 0 -16 -20 -25 -44z"/>
</g>
</svg>
